<?xml version="1.0" encoding="utf-8"?>
<!-- Generator: Adobe Illustrator 15.0.0, SVG Export Plug-In . SVG Version: 6.00 Build 0)  -->
<!DOCTYPE svg PUBLIC "-//W3C//DTD SVG 1.1//EN" "http://www.w3.org/Graphics/SVG/1.1/DTD/svg11.dtd">
<svg version="1.1" id="Calque_1" xmlns="http://www.w3.org/2000/svg" xmlns:xlink="http://www.w3.org/1999/xlink" x="0px" y="0px"
	 width="415.311px" height="81.508px" viewBox="0 0 415.311 81.508" enable-background="new 0 0 415.311 81.508"
	 xml:space="preserve">
<g>
	<path d="M401.682,74.096c0-3.502,2.548-6.143,5.805-6.143c3.227,0,5.769,2.641,5.769,6.143c0,3.559-2.542,6.182-5.769,6.182
		C404.229,80.277,401.682,77.654,401.682,74.096z M407.486,81.508c3.883,0,7.202-3.129,7.202-7.412c0-4.244-3.319-7.375-7.202-7.375
		c-3.92,0-7.236,3.131-7.236,7.375C400.25,78.379,403.566,81.508,407.486,81.508z M405.98,74.684h1.431l2.169,3.695h1.395
		l-2.337-3.754c1.206-0.156,2.13-0.824,2.13-2.35c0-1.682-0.963-2.424-2.903-2.424h-3.128v8.527h1.244V74.684z M405.98,73.586
		v-2.639h1.695c0.867,0,1.791,0.193,1.791,1.25c0,1.313-0.945,1.389-2,1.389H405.98z"/>
	<path d="M293.311,13.67C284.311,0.512,271.338,0,253.862,0c-2.302,0-23.854,0.512-26.052,0.512v80.996h19.116l0.031-70.52
		c3.137,0,6.693-0.127,9.31-0.127c8.477,0,23.231,0,23.231,28.615c0,28.789-11.884,30.771-25.094,30.907v11.105
		c9.072-0.108,16.974-0.786,22.999-3.433c13.186-5.748,22.602-19.545,22.602-39.475C300.006,32.705,299.064,21.975,293.311,13.67z"
		/>
	<path d="M133.347,69.537V47.605h24.817V36.58h-24.817V17.613h27.841V6.352h-44.118v65.695c0.026,5.189,4.202,9.389,9.377,9.461
		h35.897V69.537H133.347z"/>
	<path d="M97.442,0.512l-16.008,54.17L66.995,0.512H55.274l-15.902,54.17L26.587,8.073c-1.315-4.364-3.027-7.298-9.444-7.562H0
		c0,0,4.615,2.334,8.381,13.904c2.155,6.615,20.108,67.092,20.108,67.092h13.496l15.278-47.27l13.184,47.27h13.392l28.773-80.996
		H97.442z"/>
	<g>
		<polygon points="371.817,6.359 371.818,6.359 371.816,6.352 353.316,6.352 375.996,81.508 387.738,81.508 390.116,75.026 		"/>
		<polygon points="394.6,62.806 415.311,6.352 402.148,6.352 390,45.547 		"/>
	</g>
	<g>
		<rect x="331.316" y="36.58" width="17.338" height="11.025"/>
		<polygon points="323.836,69.537 323.836,17.613 351.677,17.613 351.677,6.352 307.559,6.352 307.559,81.508 352.832,81.508 
			352.832,69.537 		"/>
	</g>
	<path d="M213.354,45.789c-1.965-1.68-4.542-2.906-7.729-3.674c2.726-0.916,4.77-1.85,6.135-2.801
		c4.185-2.777,6.281-7.494,6.281-14.148c0-6.326-1.75-11.096-5.249-14.318c-3.307-2.998-7.714-4.496-13.22-4.496h-27.606v65.517
		c0.071,5.07,4.104,9.17,9.141,9.362h19.289c4.383,0,8.186-1.225,11.408-3.678c4.898-3.729,7.35-9.473,7.35-17.227
		C219.152,54.002,217.219,49.156,213.354,45.789z M188.486,14.451h4.404c6.066,0,9.102,3.887,9.102,11.656
		c0,2.367-0.304,4.576-0.905,6.619c-0.603,2.043-1.376,3.539-2.319,4.486c-1.436,1.385-3.748,2.076-6.941,2.076h-3.34V14.451z
		 M193.715,73.129h-5.229v-25.92h3.727c6.836,0,10.255,4.596,10.255,13.781C202.468,69.084,199.548,73.129,193.715,73.129z"/>
</g>
</svg>
